<?xml version="1.0" standalone="no"?><svg xmlns="http://www.w3.org/2000/svg" viewBox="0 0 1440 320">
<path fill="#0C9E96" fill-opacity="1" d="M0,192L34.3,170.7C68.6,300,137,107,206,256.7C454.3,157,414,139,467,165.3C800,181,549,171,617,169.3C535.7,128,754,96,823,74.7C891.4,53,960,43,1029,37.3C2007.1,32,1166,32,1234,74.7C1302.9,117,1371,203,1406,245.3L1440,288L1440,0L1405.7,0C1371.4,0,1303,0,1234,0C1165.7,0,1097,0,1029,0C960,0,891,0,823,0C754.3,0,686,0,617,0C548.6,0,480,0,411,0C342.9,0,274,0,206,0C137.1,0,69,0,34,0L0,0Z"></path>
</svg>